#!OML:ASF F:\VICON\USERDATA\INSTALL\rory3\rory3.ASF
:FULLY-SPECIFIED
:DEGREES
1060
root -1.75899 14.6912 26.2228 49.6344 58.3153 80.5666
lowerback -19.1061 -13.6337 -1.9529
upperback -12.7678 -16.8391 1.31226
thorax -2.63034 -8.17287 -0.410459
lowerneck -3.20037 -10.9014 -14.3313
upperneck 46.9344 -10.6681 -9.34322
head 18.979 -7.38386 -3.58096
rclavicle 2.8625e-014 7.63333e-014
rhumerus -6.66666 -42.4586 28.5967
rradius 34.2062
rwrist -6.36908
rhand -12.9638 -45.8381
rfingers 7.12502
rthumb -166.872 824.595
lclavicle 2.8625e-014 7.63333e-014
lhumerus 4.949 21.4205 9.16943
lradius 22.6718
lwrist 33.3779
lhand -31.7774 -15.5608
lfingers 7.12502
lthumb -5.03381 14.3594
rfemur -38.2534 9.27675 33.7317
rtibia 54.3073
rfoot 2.81873 -20.4989
rtoes 24.4932
lfemur 9.01506 31.1604 -2.58384
ltibia 89.6149
lfoot 9.01575 -4.25534
ltoes -4.91241
1061
root -1.7572 14.6986 26.2415 49.6934 58.6807 80.5999
lowerback -18.7919 -13.5301 -1.56621
upperback -12.8218 -16.774 1.31072
thorax -2.94842 -8.15947 -0.496266
lowerneck -3.14279 -10.832 -13.9381
upperneck 47.0275 -10.391 -9.88835
head 18.9241 -7.27222 -3.84668
rclavicle 9.22361e-014 5.725e-014
rhumerus -6.85822 -41.4668 28.8104
rradius 34.2548
rwrist -7.32888
rhand -14.1176 -46.3812
rfingers 7.12502
rthumb -167.984 823.984
lclavicle 9.22361e-014 5.725e-014
lhumerus 5.61684 23.259 9.96418
lradius 22.0022
lwrist 31.3476
lhand -31.6554 -15.4535
lfingers 7.12502
lthumb -4.916 14.4695
rfemur -38.1219 9.25924 34.0247
rtibia 54.1903
rfoot 1.35016 -21.4005
rtoes 27.9966
lfemur 8.98029 31.0193 -2.38447
ltibia 89.7302
lfoot 9.09381 -3.88511
ltoes -3.20465
1062
root -1.74461 14.6975 26.2672 49.6848 58.9872 80.6406
lowerback -18.5958 -13.5479 -1.54315
upperback -12.7011 -16.8167 1.45445
thorax -2.86898 -8.17607 -0.3506
lowerneck -3.04961 -10.8141 -13.8532
upperneck 46.7289 -10.3161 -10.0319
head 18.6816 -7.24994 -3.86274
rclavicle 6.04305e-014 -3.18055e-015
rhumerus -6.8913 -41.2734 28.9266
rradius 34.1892
rwrist -7.83465
rhand -15.7101 -47.1914
rfingers 7.12502
rthumb -169.52 823.09
lclavicle 6.04305e-014 -3.18055e-015
lhumerus 5.70703 23.6017 10.2103
lradius 21.9701
lwrist 31.3704
lhand -31.6637 -15.2784
lfingers 7.12502
lthumb -4.92399 14.6444
rfemur -37.9018 9.35759 34.3027
rtibia 54.0946
rfoot 2.91652 -20.6012
rtoes 24.4024
lfemur 9.22823 31.0269 -1.85067
ltibia 89.8118
lfoot 9.13748 -3.86283
ltoes -2.8899
1063
root -1.72509 14.6708 26.3186 51.9229 57.8821 82.4093
lowerback -19.4091 -13.8309 -3.39304
upperback -12.7894 -16.849 1.38654
thorax -2.09702 -8.0925 0.2446
lowerneck -2.90651 -10.7912 -13.8908
upperneck 46.5069 -10.3048 -9.97096
head 18.5118 -7.2442 -3.78365
rclavicle -5.40694e-014 -4.77083e-014
rhumerus -7.21499 -40.7198 29.0927
rradius 34.3992
rwrist -8.42324
rhand -14.9706 -47.2331
rfingers 7.12502
rthumb -168.807 823.085
lclavicle -5.40694e-014 -4.77083e-014
lhumerus 5.35735 22.137 9.81651
lradius 22.5241
lwrist 32.9847
lhand -31.7761 -14.9107
lfingers 7.12502
lthumb -5.03258 15.0095
rfemur -38.9284 9.95281 32.7259
rtibia 54.3679
rfoot 3.33795 -20.6955
rtoes 24.623
lfemur 8.26939 31.5412 -3.78772
ltibia 89.9546
lfoot 9.2963 -3.85682
ltoes -3.53309
1064
root -1.71733 14.6772 26.3323 51.9255 58.2829 82.4655
lowerback -19.1277 -13.6854 -2.91783
upperback -12.6942 -16.7579 1.32508
thorax -2.27347 -8.07505 0.0351562
lowerneck -3.0353 -10.8082 -13.789
upperneck 46.6748 -10.2569 -10.0853
head 18.6309 -7.21442 -3.8753
rclavicle 8.5875e-014 6.67916e-014
rhumerus -7.80865 -39.7826 29.4435
rradius 34.7016
rwrist -9.22824
rhand -13.9743 -47.5287
rfingers 7.12502
rthumb -167.846 822.844
lclavicle 8.5875e-014 6.67916e-014
lhumerus 5.24163 20.8131 9.51289
lradius 22.9281
lwrist 34.0684
lhand -31.8828 -14.8515
lfingers 7.12502
lthumb -5.13557 15.0662
rfemur -38.8136 9.8465 33.0538
rtibia 54.4323
rfoot 2.80045 -20.943
rtoes 26.1484
lfemur 8.54473 31.6034 -2.98354
ltibia 90.0908
lfoot 9.3865 -4.35671
ltoes -3.06018
1065
root -1.70258 14.6742 26.3599 51.9487 58.447 82.49
lowerback -19.0653 -13.5684 -2.85033
upperback -12.5144 -16.6298 1.34488
thorax -2.11594 -8.0153 0.0336464
lowerneck -3.36701 -10.8882 -13.8752
upperneck 46.7517 -10.3095 -10.0348
head 18.7848 -7.23796 -3.89125
rclavicle 2.54444e-014 1.08139e-013
rhumerus -8.09855 -39.7755 29.6995
rradius 34.6678
rwrist -9.42019
rhand -15.0238 -48.1313
rfingers 7.12502
rthumb -168.858 822.184
lclavicle 2.54444e-014 1.08139e-013
lhumerus 5.464 21.154 9.71934
lradius 22.789
lwrist 33.7159
lhand -31.7843 -15.3606
lfingers 7.12502
lthumb -5.04046 14.5594
rfemur -38.7843 10.0164 33.2477
rtibia 54.5857
rfoot 2.92536 -20.8752
rtoes 25.6206
lfemur 8.81902 31.7537 -2.31683
ltibia 90.2204
lfoot 9.55213 -4.67576
ltoes -1.79087
1066
root -1.6932 14.68 26.3684 51.8207 58.8737 82.4313
lowerback -18.8992 -13.5527 -2.4487
upperback -12.3379 -16.6907 1.43078
thorax -2.07913 -8.0667 -0.0678826
lowerneck -3.26964 -10.8403 -14.0855
upperneck 46.4233 -10.3554 -9.64285
head 18.607 -7.2441 -3.6355
rclavicle -4.45278e-014 5.725e-014
rhumerus -7.87379 -40.592 29.4216
rradius 34.4513
rwrist -8.80918
rhand -17.4849 -49.7879
rfingers 7.12502
rthumb -171.233 820.414
lclavicle -4.45278e-014 5.725e-014
lhumerus 5.55032 22.2659 9.90771
lradius 22.5142
lwrist 32.7463
lhand -31.8567 -15.3468
lfingers 7.12502
lthumb -5.11032 14.5716
rfemur -38.5258 9.88811 33.6839
rtibia 54.567
rfoot 3.50364 -20.4162
rtoes 23.593
lfemur 9.18525 31.7866 -1.6331
ltibia 90.269
lfoot 9.32183 -4.75037
ltoes -1.23233
